<svg xmlns="http://www.w3.org/2000/svg" viewBox="0 0 841.9 595.3"><g fill="#61DAFB"><path d="M666.3 296.5c032.540.763.3103.182.4 14.463.6 8114.220.2130.46.53.814.15.622.45.6v22.3c4.6 0 8.3.9 11.4 2.6 13.6 7.8 19.5 37.5 14.9 75.71.1 9.42.9 19.35.1 29.419.64.8418.563.510.913.518.527.535.341.650 32.630.3 63.246.9 8446.9V78c27.5 063.5 19.699.9 53.636.433.872.453.299.953.2v22.3c20.7 0 51.4 16.5 84 46.614 14.728 31.441.3 49.922.6 2.444 6.163.6 112.310419.75.2294.738.2 1.167.9 14.675.8 31.8 6.92.6 11.52.6V78.5c8.4 016 1.822.6 5.628.1 16.234.4 66.719.9 130.162.2 19.2102.7 49.9102.7 82.3 0 32.5 40.7 63.3 103.1 82.414.4 63.68 114.2 20.2 130.4 6.5 3.8 14.1 5.6 22.5 5.6 27.5 0 63.519.6 99.953.6 36.4 33.8 72.4 53.2 99.9 53.2 8.4 0 161.8 22.65.6 28.116.2 34.466.7 19.9130.1 6219.1 102.549.9 102.582.3zm130.266.7c3.7 12.98.3 26.213.5 39.54.188.41613.1244.689.515.814.423.4 14.2 2.1 27.9 4.7 41 7.9zm45.8 106.5c7.8 13.515.8 26.324.1 38.214.9 1.330 245.2 215.1 030.2.7451.98.311.916.424.624.2387.613.114.526.420.839.8 6.213.4 13.226.8 20.739.9 7.813.5 15.826.3 24.138.2 14.91.3 302 45.22 15.1 0 30.2.7 45 1.9 8.3 11.9 16.4 24.6 24.2 38 7.6 13.1 14.5 26.4 20.8 39.86.3 13.413.2 26.820.7 39.9zm32.313c5.4 13.4 10 26.8 13.8 39.813.1 3.226.9 5.941.2 8 4.97.7 9.815.6 14.423.7 4.68 8.916.1 1324.1zM421.2 430c9.39.618.620.327.832 9 .4 18.2.7 27.5.7 9.4 0 18.7.2 27.8.79 11.718.3 22.427.5 32zm74.458.9c14.22.127.94.7417.9 3.712.9 8.326.2 13.539.5 4.1 8 8.4 16 13.1 24 4.7 8 9.5 15.8 14.4 23.4zM420.7 163c9.3 9.6 18.6 20.3 27.8 329.418.2.727.5.79.4 018.7.227.8.7 911.7 18.322.4 27.532zm74 58.9c4.9 7.79.8 15.614.4 23.74.6 88.9 1613 245.413.41026.813.839.8 13.13.1 26.95.8 41.27.9zm90.5 125.2c35.415.158.334.958.350.6 015.7 22.935.6 58.350.6 8.63.7 187 27.710.1 5.7 19.6 13.2 40 22.5 60.99.2 20.816.6 41.122.2 60.69.93.119.36.52810.2zM310 490c13.67.819.537.514.975.7 1.19.4 2.919.3 5.129.4 19.6 4.8 41 8.5 63.5 10.9 13.5 18.5 27.5 35.3 41.6 5032.6 30.363.2 46.984 46.94.5.18.3111.32.7zm237.276.2c4.7 38.21.1 67.914.6 75.83 1.86.9 2.611.5 2.620.7 051.416.58446.6 1414.7 2831.4 41.349.9 22.62.4 446.1 63.611 2.3 10.1 4.1 19.8 5.2 29.1zm38.566.7c8.6 3.718 727.7 10.15.719.613.24022.560.9 9.220.8 16.641.1 22.260.6 9.9 3.1 19.3 6.5 28.1 10.2 35.4 15.1 58.3 34.9 58.3 50.6.1 15.723 35.658.4 50.6zM320.8 78.4z"/><circle cx="420.9" cy="296.5" r="45.7"/><path d="M520.5 78.1z"/></g></svg>